<svg width="20" height="20" viewBox="0 0 20 20" fill="none" xmlns="http://www.w3.org/2000/svg">
<path d="M18.5174 6.68825C18.3533 6.7435 18.2637 6.92551 18.3173 7.09475C18.613 8.02957 18.763 9.00706 18.763 10.0001C18.763 12.4989 17.8197 14.8482 16.1068 16.6152C14.3938 18.3822 12.1164 19.3553 9.69398 19.3553C7.27156 19.3553 4.99414 18.3822 3.28121 16.6152C1.56828 14.8482 0.625 12.4989 0.625 10C0.625 7.50113 1.56832 5.15182 3.28125 3.38482C4.99418 1.61783 7.2716 0.644728 9.69402 0.644728C10.9788 0.644728 12.2201 0.916079 13.3837 1.45132C14.5079 1.96848 15.5043 2.70484 16.345 3.63998C16.4623 3.77049 16.6601 3.77823 16.7866 3.6571C16.9132 3.53605 16.9206 3.33212 16.8033 3.20152C15.9048 2.20223 14.84 1.4153 13.6383 0.862485C12.394 0.290208 11.067 0 9.69402 0C7.10465 0 4.67027 1.04015 2.83934 2.92896C1.00836 4.81769 0 7.32891 0 10C0 12.6711 1.00836 15.1823 2.83934 17.071C4.67027 18.9598 7.10465 20 9.69402 20C12.2834 20 14.7178 18.9599 16.5487 17.071C18.3797 15.1823 19.388 12.6711 19.388 10C19.388 8.93896 19.2277 7.89418 18.9114 6.89469C18.8579 6.72544 18.6814 6.63313 18.5174 6.68825Z" fill="#00CE46"/>
<path d="M19.7254 3.03942C19.5483 2.85656 19.3127 2.75586 19.0621 2.75586C18.8114 2.75586 18.5758 2.85656 18.3989 3.0393L18.1191 3.32785C17.9971 3.45374 17.9971 3.65783 18.1191 3.78372C18.2412 3.90956 18.4391 3.9096 18.5611 3.78368L18.8409 3.495C18.8999 3.43407 18.9784 3.40055 19.062 3.40055C19.1456 3.40055 19.2241 3.43407 19.2833 3.49516C19.3424 3.55617 19.375 3.63716 19.375 3.72336C19.375 3.80955 19.3424 3.89054 19.2833 3.95155L8.50789 15.0671C8.44891 15.1281 8.37039 15.1616 8.2868 15.1616C8.2032 15.1616 8.12469 15.1281 8.06555 15.067L3.8573 10.7259C3.79816 10.6649 3.76559 10.5839 3.76559 10.4977C3.76559 10.4116 3.79816 10.3305 3.85742 10.2694C3.91641 10.2084 3.99492 10.1749 4.07852 10.1749C4.16211 10.1749 4.24062 10.2084 4.29977 10.2695L8.06582 14.1545C8.12441 14.2149 8.20391 14.2489 8.2868 14.2489C8.36969 14.2489 8.44918 14.2149 8.50777 14.1545L17.6816 4.69109C17.8036 4.56517 17.8036 4.36111 17.6816 4.23519C17.5595 4.10935 17.3617 4.10935 17.2396 4.23519L8.2868 13.4706L4.74187 9.81374C4.5648 9.63088 4.32926 9.53018 4.07859 9.53018C3.82793 9.53018 3.59234 9.63088 3.41539 9.81362C3.2382 9.9964 3.14062 10.2393 3.14062 10.4977C3.14062 10.7561 3.2382 10.999 3.41539 11.1819L7.62352 15.5228C7.80055 15.7057 8.03613 15.8064 8.2868 15.8064C8.53746 15.8064 8.77305 15.7057 8.94996 15.523L19.7252 4.40753C19.9024 4.22475 20 3.98181 20 3.7234C20 3.46498 19.9024 3.22204 19.7254 3.03942Z" fill="#00CE46"/>
</svg>
