<svg width="70" height="70" viewBox="0 0 70 70" fill="none" xmlns="http://www.w3.org/2000/svg">
<path d="M28.075 27.7426C21.7606 27.7426 16.6229 32.8496 16.6229 39.1279C16.6229 39.8277 17.1935 40.3956 17.8984 40.3956H38.2491C38.9532 40.3956 39.5246 39.8277 39.5246 39.1279C39.5246 32.8504 34.3886 27.7426 28.075 27.7426ZM19.2649 37.8603C19.8848 33.5789 23.5998 30.2779 28.075 30.2779C32.5494 30.2779 36.2619 33.5789 36.8826 37.8603H19.2649Z" fill="#00CE46"/>
<path d="M27.893 26.7724C31.7246 26.7724 34.8418 23.6751 34.8418 19.8687C34.8418 16.0656 31.7246 12.9717 27.893 12.9717C24.0674 12.9717 20.9553 16.0656 20.9553 19.8687C20.9553 23.6751 24.0674 26.7724 27.893 26.7724ZM27.893 15.507C30.3181 15.507 32.2909 17.4635 32.2909 19.8687C32.2909 22.2772 30.3181 24.2371 27.893 24.2371C25.4739 24.2371 23.5062 22.2772 23.5062 19.8687C23.5062 17.4635 25.4739 15.507 27.893 15.507Z" fill="#00CE46"/>
<path d="M69.6259 62.0542L56.3226 48.8409C56.0837 48.6034 55.7588 48.4699 55.4204 48.4699C55.0828 48.4699 54.7572 48.6034 54.5174 48.8409L52.3346 51.012L48.4078 47.1101C53.1985 42.1028 56.1474 35.341 56.1474 27.9023C56.1474 12.517 43.5534 4.27924e-08 28.0733 4.27924e-08C12.5941 -0.000845072 0 12.5162 0 27.9015C0 43.2876 12.5941 55.8038 28.0741 55.8038C35.1539 55.8038 41.6257 53.1797 46.5694 48.8671L50.5328 52.8053L48.7046 54.6231C48.2072 55.1184 48.2072 55.9212 48.7054 56.4156L62.0078 69.629C62.2468 69.8665 62.5716 70 62.91 70C63.2485 70 63.5724 69.8665 63.8122 69.629L69.6267 63.8467C69.8656 63.6092 70 63.2864 70 62.9501C69.9991 62.6137 69.8648 62.2917 69.6259 62.0542ZM2.55096 27.9015C2.55096 13.914 14.0005 2.5345 28.0741 2.5345C42.1478 2.5345 53.5973 13.914 53.5973 27.9015C53.5973 41.889 42.1478 53.2684 28.0741 53.2684C14.0005 53.2684 2.55096 41.889 2.55096 27.9015ZM62.9083 66.9398L51.4112 55.5181L55.4221 51.5292L66.9201 62.9509L62.9083 66.9398Z" fill="#00CE46"/>
</svg>
