<svg width="70" height="70" viewBox="0 0 70 70" fill="none" xmlns="http://www.w3.org/2000/svg">
<path d="M35.2855 8.39062C20.3727 8.39062 8.24036 20.4381 8.24036 35.2464C8.24036 50.054 20.3727 62.0998 35.2855 62.0998C50.2024 62.0998 62.338 50.0532 62.338 35.2464C62.338 34.5832 61.7964 34.0464 61.1291 34.0464H36.4944V9.59065C36.4944 8.92744 35.9537 8.39062 35.2855 8.39062ZM59.8912 36.4464C59.2586 49.3747 48.464 59.6998 35.2855 59.6998C21.7057 59.6998 10.6581 48.7299 10.6581 35.2464C10.6581 22.1637 21.0562 11.4475 34.0767 10.8195V35.2464C34.0767 35.9088 34.6174 36.4464 35.2855 36.4464H59.8912Z" fill="#00CE46"/>
<path d="M58.2874 58.2733C57.625 58.9214 56.9214 59.5398 56.2009 60.131C54.9324 61.167 53.5816 62.119 52.1777 62.955C36.6532 72.2088 16.4398 67.2023 7.11933 51.7956C2.60294 44.3306 1.28525 35.5672 3.40966 27.1182C5.53408 18.6709 10.8451 11.5499 18.3652 7.0674C25.8853 2.5833 34.7142 1.27527 43.2231 3.38332C51.4798 5.42817 58.4712 10.4571 63.0053 17.5716L60.1951 16.6748C59.5584 16.4724 58.8782 16.8204 58.6743 17.45C58.4696 18.0812 58.8193 18.7565 59.4552 18.9597L65.0701 20.7509C65.1926 20.7901 65.3183 20.8085 65.44 20.8085C65.9494 20.8085 66.4224 20.4877 66.5893 19.9821L68.459 14.3172C68.6669 13.6867 68.3204 13.0091 67.6861 12.8027C67.0494 12.5955 66.3684 12.9395 66.1605 13.5691L65.1902 16.51C60.3264 8.75304 52.7596 3.27052 43.809 1.05367C34.6714 -1.20718 25.1938 0.19685 17.12 5.00976C9.0471 9.82266 3.34439 17.4684 1.06362 26.5374C-1.21714 35.608 0.197253 45.017 5.04569 53.0316C11.6502 63.9479 23.345 70 35.3259 70C41.5008 70 47.7532 68.3912 53.4221 65.0127C54.0354 64.6471 54.6366 64.2559 55.2298 63.8519C55.2564 63.8367 55.2854 63.8303 55.3104 63.8135C56.0308 63.3223 56.7239 62.8094 57.3679 62.2926C57.4831 62.2006 57.5943 62.1006 57.7088 62.007C57.7878 61.943 57.8692 61.8814 57.9473 61.8166C57.9683 61.799 57.9836 61.7782 58.0038 61.7598C58.684 61.191 59.3521 60.6014 59.9847 59.983C60.4602 59.5182 60.4667 58.7582 59.9976 58.2861C59.5294 57.8141 58.7621 57.8077 58.2874 58.2733Z" fill="#00CE46"/>
<path d="M66.2064 49.1739C65.6092 48.8755 64.8823 49.1123 64.5817 49.7035C63.7129 51.4116 62.6982 53.0404 61.5675 54.5452C61.1686 55.0765 61.279 55.8285 61.8133 56.2253C62.0309 56.3861 62.284 56.4637 62.5354 56.4637C62.9037 56.4637 63.268 56.2973 63.5049 55.9813C64.7195 54.3644 65.8075 52.6172 66.7399 50.7868C67.0405 50.1939 66.802 49.4723 66.2064 49.1739Z" fill="#00CE46"/>
<path d="M69.0054 39.7826C68.3526 39.6706 67.72 40.0986 67.6007 40.7506C67.2791 42.5234 66.8077 44.2811 66.2008 45.9731C65.9767 46.5971 66.3056 47.2843 66.9342 47.5059C67.068 47.5539 67.205 47.5755 67.3396 47.5755C67.836 47.5755 68.3018 47.2691 68.4783 46.7779C69.1295 44.9619 69.6348 43.0778 69.9806 41.177C70.0991 40.525 69.663 39.9002 69.0054 39.7826Z" fill="#00CE46"/>
</svg>
