<svg width="70" height="70" viewBox="0 0 70 70" fill="none" xmlns="http://www.w3.org/2000/svg">
<path d="M69.9227 8.86346C69.7567 8.43068 69.3488 8.14165 68.8893 8.13095L62.1492 7.97191L62.3016 1.17284C62.3122 0.709477 62.0438 0.284344 61.623 0.0977749C61.2014 -0.0895588 60.7109 -0.00315616 60.3781 0.317987L52.324 8.07666C52.1056 8.28617 51.979 8.5752 51.9714 8.87875L51.7985 16.1381L49.8038 18.1499C44.5102 13.2012 37.4319 10.1687 29.6629 10.1687C13.3067 10.1687 0 23.5917 0 40.0901C0 56.5823 13.3067 70 29.6629 70C46.019 70 59.3257 56.5823 59.3257 40.0901C59.3257 32.2519 56.3188 25.1118 51.4119 19.7716L53.1655 18.0031L60.7761 18.182C60.7852 18.182 60.7935 18.182 60.8026 18.182C61.0945 18.182 61.3758 18.0688 61.5873 17.8647L69.6475 10.1075C69.9811 9.78713 70.0895 9.29624 69.9227 8.86346ZM57.0504 40.0901C57.0504 55.3176 44.7642 67.7061 29.6621 67.7061C14.56 67.7061 2.27377 55.3176 2.27377 40.0901C2.27377 24.8564 14.56 12.4626 29.6621 12.4626C36.8049 12.4626 43.3146 15.2374 48.1957 19.7709L43.9863 24.0161C40.1863 20.5691 35.1642 18.4664 29.6629 18.4664C17.8437 18.4664 8.22848 28.1665 8.22848 40.0893C8.22848 52.0091 17.8437 61.7061 29.6629 61.7061C41.4858 61.7061 51.1033 52.0091 51.1033 40.0893C51.1033 34.5381 49.0168 29.4702 45.5944 25.6371L49.803 21.3926C54.299 26.3168 57.0504 32.885 57.0504 40.0901ZM36.5099 40.0863C36.5099 43.8933 33.4386 46.9901 29.6636 46.9901C25.8887 46.9901 22.8173 43.8926 22.8173 40.0863C22.8173 36.2792 25.8887 33.1817 29.6636 33.1817C31.1405 33.1817 32.506 33.6603 33.6258 34.4655L28.8577 39.2742C28.4134 39.7223 28.4134 40.4479 28.8577 40.896C29.0798 41.12 29.371 41.2317 29.6621 41.2317C29.9532 41.2317 30.2444 41.12 30.4665 40.896L35.2347 36.0873C36.0338 37.2174 36.5099 38.5952 36.5099 40.0863ZM35.2476 32.8292C33.7024 31.6172 31.7675 30.8878 29.6629 30.8878C24.6339 30.8878 20.542 35.0145 20.542 40.0863C20.542 45.158 24.6331 49.284 29.6629 49.284C34.6926 49.284 38.7837 45.158 38.7837 40.0863C38.7837 37.9621 38.0589 36.0093 36.8557 34.4509L43.9825 27.2627C46.994 30.6783 48.828 35.1712 48.828 40.0901C48.828 50.7452 40.2303 59.413 29.6621 59.413C19.0969 59.413 10.5022 50.7452 10.5022 40.0901C10.5022 29.4319 19.0969 20.7611 29.6621 20.7611C34.5364 20.7611 38.9884 22.6084 42.3744 25.6417L35.2476 32.8292ZM60.3576 15.8782L55.3877 15.7612L58.9914 12.1269C59.4356 11.6788 59.4356 10.9524 58.9914 10.5051C58.5471 10.057 57.8276 10.057 57.3833 10.5051L54.1292 13.7869L54.2331 9.40941L57.9238 5.85771L57.9246 5.85695L59.9649 3.89033L59.8489 9.06685C59.8344 9.69996 60.3326 10.2245 60.9596 10.239L66.0909 10.3598L60.3576 15.8782Z" fill="#00CE46"/>
</svg>
