<svg width="182" height="25" viewBox="0 0 182 25" fill="none" xmlns="http://www.w3.org/2000/svg">
<path d="M13.2 9C12.8833 8.41667 12.425 7.975 11.825 7.675C11.2417 7.35833 10.55 7.2 9.75 7.2C8.36667 7.2 7.25833 7.65833 6.425 8.575C5.59167 9.475 5.175 10.6833 5.175 12.2C5.175 13.8167 5.60833 15.0833 6.475 16C7.35833 16.9 8.56667 17.35 10.1 17.35C11.15 17.35 12.0333 17.0833 12.75 16.55C13.4833 16.0167 14.0167 15.25 14.35 14.25H8.925V11.1H18.225V15.075C17.9083 16.1417 17.3667 17.1333 16.6 18.05C15.85 18.9667 14.8917 19.7083 13.725 20.275C12.5583 20.8417 11.2417 21.125 9.775 21.125C8.04167 21.125 6.49167 20.75 5.125 20C3.775 19.2333 2.71667 18.175 1.95 16.825C1.2 15.475 0.825 13.9333 0.825 12.2C0.825 10.4667 1.2 8.925 1.95 7.575C2.71667 6.20833 3.775 5.15 5.125 4.4C6.475 3.63333 8.01667 3.25 9.75 3.25C11.85 3.25 13.6167 3.75833 15.05 4.775C16.5 5.79167 17.4583 7.2 17.925 9H13.2ZM24.868 9.375C25.368 8.60833 25.993 8.00833 26.743 7.575C27.493 7.125 28.3263 6.9 29.243 6.9V11.425H28.068C27.0013 11.425 26.2013 11.6583 25.668 12.125C25.1346 12.575 24.868 13.375 24.868 14.525V21H20.593V7.05H24.868V9.375ZM37.6363 21.2C36.2697 21.2 35.0363 20.9083 33.9363 20.325C32.853 19.7417 31.9947 18.9083 31.3613 17.825C30.7447 16.7417 30.4363 15.475 30.4363 14.025C30.4363 12.5917 30.753 11.3333 31.3863 10.25C32.0197 9.15 32.8863 8.30833 33.9863 7.725C35.0863 7.14167 36.3197 6.85 37.6863 6.85C39.053 6.85 40.2863 7.14167 41.3863 7.725C42.4863 8.30833 43.353 9.15 43.9863 10.25C44.6197 11.3333 44.9363 12.5917 44.9363 14.025C44.9363 15.4583 44.6113 16.725 43.9613 17.825C43.328 18.9083 42.453 19.7417 41.3363 20.325C40.2363 20.9083 39.003 21.2 37.6363 21.2ZM37.6363 17.5C38.453 17.5 39.1447 17.2 39.7113 16.6C40.2947 16 40.5863 15.1417 40.5863 14.025C40.5863 12.9083 40.303 12.05 39.7363 11.45C39.1863 10.85 38.503 10.55 37.6863 10.55C36.853 10.55 36.1613 10.85 35.6113 11.45C35.0613 12.0333 34.7863 12.8917 34.7863 14.025C34.7863 15.1417 35.053 16 35.5863 16.6C36.1363 17.2 36.8197 17.5 37.6363 17.5ZM67.2293 7.05L63.4543 21H58.7293L56.5293 11.95L54.2543 21H49.5543L45.7543 7.05H50.0293L52.0043 17.025L54.3543 7.05H58.8793L61.2543 16.975L63.2043 7.05H67.2293ZM76.6346 17.375V21H74.4596C72.9096 21 71.7012 20.625 70.8346 19.875C69.9679 19.1083 69.5346 17.8667 69.5346 16.15V10.6H67.8346V7.05H69.5346V3.65H73.8096V7.05H76.6096V10.6H73.8096V16.2C73.8096 16.6167 73.9096 16.9167 74.1096 17.1C74.3096 17.2833 74.6429 17.375 75.1096 17.375H76.6346ZM87.5908 6.9C89.1908 6.9 90.4742 7.43333 91.4408 8.5C92.4075 9.55 92.8908 11 92.8908 12.85V21H88.6408V13.425C88.6408 12.4917 88.3992 11.7667 87.9158 11.25C87.4325 10.7333 86.7825 10.475 85.9658 10.475C85.1492 10.475 84.4992 10.7333 84.0158 11.25C83.5325 11.7667 83.2908 12.4917 83.2908 13.425V21H79.0158V2.5H83.2908V8.925C83.7242 8.30833 84.3158 7.81667 85.0658 7.45C85.8158 7.08333 86.6575 6.9 87.5908 6.9ZM109.237 9.1C109.237 10.1167 109.003 11.05 108.537 11.9C108.07 12.7333 107.353 13.4083 106.387 13.925C105.42 14.4417 104.22 14.7 102.787 14.7H100.137V21H95.8615V3.45H102.787C104.187 3.45 105.37 3.69167 106.337 4.175C107.303 4.65833 108.028 5.325 108.512 6.175C108.995 7.025 109.237 8 109.237 9.1ZM102.462 11.3C103.278 11.3 103.887 11.1083 104.287 10.725C104.687 10.3417 104.887 9.8 104.887 9.1C104.887 8.4 104.687 7.85833 104.287 7.475C103.887 7.09167 103.278 6.9 102.462 6.9H100.137V11.3H102.462ZM117.812 21.2C116.445 21.2 115.212 20.9083 114.112 20.325C113.029 19.7417 112.17 18.9083 111.537 17.825C110.92 16.7417 110.612 15.475 110.612 14.025C110.612 12.5917 110.929 11.3333 111.562 10.25C112.195 9.15 113.062 8.30833 114.162 7.725C115.262 7.14167 116.495 6.85 117.862 6.85C119.229 6.85 120.462 7.14167 121.562 7.725C122.662 8.30833 123.529 9.15 124.162 10.25C124.795 11.3333 125.112 12.5917 125.112 14.025C125.112 15.4583 124.787 16.725 124.137 17.825C123.504 18.9083 122.629 19.7417 121.512 20.325C120.412 20.9083 119.179 21.2 117.812 21.2ZM117.812 17.5C118.629 17.5 119.32 17.2 119.887 16.6C120.47 16 120.762 15.1417 120.762 14.025C120.762 12.9083 120.479 12.05 119.912 11.45C119.362 10.85 118.679 10.55 117.862 10.55C117.029 10.55 116.337 10.85 115.787 11.45C115.237 12.0333 114.962 12.8917 114.962 14.025C114.962 15.1417 115.229 16 115.762 16.6C116.312 17.2 116.995 17.5 117.812 17.5ZM129.53 5.6C128.78 5.6 128.163 5.38333 127.68 4.95C127.213 4.5 126.98 3.95 126.98 3.3C126.98 2.63333 127.213 2.08333 127.68 1.65C128.163 1.2 128.78 0.974999 129.53 0.974999C130.263 0.974999 130.863 1.2 131.33 1.65C131.813 2.08333 132.055 2.63333 132.055 3.3C132.055 3.95 131.813 4.5 131.33 4.95C130.863 5.38333 130.263 5.6 129.53 5.6ZM131.655 7.05V21H127.38V7.05H131.655ZM143.253 6.9C144.886 6.9 146.186 7.43333 147.153 8.5C148.136 9.55 148.628 11 148.628 12.85V21H144.378V13.425C144.378 12.4917 144.136 11.7667 143.653 11.25C143.17 10.7333 142.52 10.475 141.703 10.475C140.886 10.475 140.236 10.7333 139.753 11.25C139.27 11.7667 139.028 12.4917 139.028 13.425V21H134.753V7.05H139.028V8.9C139.461 8.28333 140.045 7.8 140.778 7.45C141.511 7.08333 142.336 6.9 143.253 6.9ZM159.374 17.375V21H157.199C155.649 21 154.44 20.625 153.574 19.875C152.707 19.1083 152.274 17.8667 152.274 16.15V10.6H150.574V7.05H152.274V3.65H156.549V7.05H159.349V10.6H156.549V16.2C156.549 16.6167 156.649 16.9167 156.849 17.1C157.049 17.2833 157.382 17.375 157.849 17.375H159.374Z" fill="black"/>
<circle cx="176" cy="19" r="6" fill="#00CE46"/>
</svg>
