<svg width="42" height="40" viewBox="0 0 42 40" fill="none" xmlns="http://www.w3.org/2000/svg">
<path d="M12.3981 0.509611H12.8981V0.5H29.5595C35.8337 0.5 40.9299 5.50619 40.9299 11.6126V28.3874C40.9299 34.4941 35.8334 39.5 29.5694 39.5H12.3981C6.12259 39.5 1.01786 34.5021 1.01786 28.4066V11.6222C1.01786 5.51633 6.12341 0.509611 12.3981 0.509611ZM3.16494 11.6308V11.6318V28.4162C3.16494 33.4238 7.28503 37.4334 12.3981 37.4334H29.5694C34.6643 37.4334 38.7829 33.4224 38.7829 28.397V11.6222C38.7829 6.5965 34.6639 2.5858 29.5595 2.5858H12.3981C7.29316 2.5858 3.17537 6.59684 3.16494 11.6308ZM32.4985 7.70007C32.4985 7.13133 32.9621 6.66198 33.5721 6.66198C34.182 6.66198 34.6456 7.13133 34.6456 7.70007C34.6456 8.26882 34.182 8.73817 33.5721 8.73817C32.9621 8.73817 32.4985 8.26882 32.4985 7.70007ZM10.4689 20.0048C10.4689 14.37 15.1909 9.73817 20.9837 9.73817C26.7765 9.73817 31.4985 14.37 31.4985 20.0048C31.4985 25.6396 26.7765 30.2715 20.9837 30.2715C15.1909 30.2715 10.4689 25.6396 10.4689 20.0048ZM29.3514 20.0048C29.3514 15.4498 25.6157 11.8144 20.9837 11.8144C16.3518 11.8144 12.616 15.4498 12.616 20.0048C12.616 24.5598 16.3518 28.1953 20.9837 28.1953C25.6157 28.1953 29.3514 24.5598 29.3514 20.0048Z" stroke="#00CE46"/>
</svg>
